<?xml version="1.0" standalone="no"?>
<!DOCTYPE svg PUBLIC "-//W3C//DTD SVG 20010904//EN"
 "http://www.w3.org/TR/2001/REC-SVG-20010904/DTD/svg10.dtd">
<svg version="1.0" xmlns="http://www.w3.org/2000/svg"
 width="1024.000000pt" height="1024.000000pt" viewBox="0 0 1024.000000 1024.000000"
 preserveAspectRatio="xMidYMid meet">

<g transform="translate(0.000000,1024.000000) scale(0.100000,-0.100000)"
fill="#000000" stroke="none">
<path d="M4770 8894 c-565 -50 -1072 -204 -1530 -467 -558 -319 -1034 -778
-1329 -1281 -339 -578 -492 -1212 -453 -1884 7 -114 19 -252 27 -307 36 -246
111 -530 200 -760 57 -146 193 -430 263 -545 l52 -85 2 1225 3 1225 32 66 c39
79 102 140 181 177 l57 27 546 3 546 3 7 117 c34 605 277 1152 696 1572 320
321 760 574 1246 715 142 41 397 95 451 95 12 0 23 5 23 10 0 6 -2 10 -4 10
-3 0 -55 11 -118 24 -181 39 -364 57 -618 61 -129 1 -255 1 -280 -1z m-1892
-1481 c19 -29 50 -67 70 -84 50 -44 168 -98 230 -106 62 -7 60 -18 -7 -27
-180 -24 -326 -144 -366 -301 -7 -29 -8 -27 -24 31 -20 71 -43 106 -111 167
-57 51 -149 92 -233 102 -31 4 -57 11 -57 15 0 4 22 10 48 13 79 9 178 55 237
109 73 66 105 123 130 233 7 28 8 27 29 -35 11 -36 36 -89 54 -117z m-628
-544 c36 -100 125 -180 243 -220 l49 -17 -62 -10 c-35 -7 -81 -21 -104 -32
-57 -27 -124 -95 -149 -150 -20 -44 -20 -45 -28 -18 -12 45 -70 116 -118 147
-44 28 -97 47 -151 54 -23 3 -23 4 -5 11 11 4 53 23 93 43 57 28 82 47 113 88
37 50 78 143 80 182 0 16 1 16 9 -2 5 -11 19 -45 30 -76z"/>
<path d="M7926 8279 c-3 -17 -6 -49 -6 -70 l0 -39 110 0 111 0 -37 -57 c-20
-32 -86 -128 -146 -213 l-110 -155 278 -3 c152 -1 278 -1 279 0 2 2 6 33 10
71 l7 67 -126 0 -127 0 35 53 c85 128 236 365 236 371 0 3 -114 6 -254 6
l-253 0 -7 -31z"/>
<path d="M7256 7963 c-4 -27 -9 -56 -12 -65 -5 -16 5 -18 116 -18 102 0 121
-2 117 -14 -3 -8 -34 -54 -70 -103 -35 -48 -87 -123 -115 -165 l-53 -78 251 0
250 0 0 23 c0 12 3 39 6 59 l6 37 -99 3 -100 3 109 165 c60 91 113 173 119
183 9 16 -6 17 -255 17 l-264 0 -6 -47z"/>
<path d="M6747 7733 c-3 -5 -8 -29 -12 -55 l-7 -48 82 0 81 0 -105 -155 c-58
-85 -106 -157 -106 -160 0 -3 98 -5 219 -5 l218 0 7 50 c4 28 4 56 0 62 -5 7
-35 9 -90 5 -46 -2 -84 -3 -84 -1 0 2 44 70 98 151 53 81 99 151 100 156 2 4
-86 7 -197 7 -110 0 -202 -3 -204 -7z"/>
<path d="M5464 7046 c-34 -8 -95 -28 -135 -45 l-73 -31 -23 28 c-12 15 -22 30
-23 35 0 14 -51 7 -91 -13 -44 -23 -119 -87 -119 -102 0 -5 14 -27 32 -48 l31
-40 -62 -62 c-110 -112 -223 -308 -238 -414 l-6 -44 40 0 c57 0 148 -26 215
-62 77 -41 138 -110 174 -195 15 -37 29 -70 31 -72 1 -2 27 19 57 47 62 59 85
64 115 26 28 -35 27 -45 -10 -80 -37 -35 -128 -163 -158 -221 -21 -42 -21 -44
-21 -943 l0 -900 53 -34 c133 -85 330 -169 510 -216 108 -29 130 -28 79 2 -63
37 -247 249 -334 384 -40 63 -107 200 -143 294 -164 426 -120 880 121 1242
189 286 537 528 901 627 197 54 465 54 668 1 589 -153 1058 -642 1162 -1210
26 -147 23 -423 -7 -560 -12 -58 -25 -116 -28 -129 -4 -22 -3 -22 19 -11 51
28 177 126 233 183 36 38 70 85 89 126 29 61 32 76 35 193 5 158 -14 288 -68
448 -70 212 -172 403 -314 588 -39 52 -77 103 -85 113 -12 17 -10 23 15 56 33
44 43 53 66 53 14 0 180 -128 339 -262 64 -54 99 -53 132 5 119 202 123 463
13 702 -43 94 -89 158 -179 252 l-69 72 36 47 c20 26 36 50 36 54 0 13 -156
110 -177 110 -19 0 -66 -44 -75 -70 -2 -7 -30 1 -73 20 -300 135 -651 69 -859
-162 -51 -55 -127 -182 -116 -191 3 -2 49 -25 103 -50 148 -71 439 -231 551
-304 l99 -64 -29 -30 c-36 -37 -56 -37 -113 4 -82 60 -218 137 -363 207 -171
81 -250 111 -422 155 -135 35 -151 45 -140 89 8 32 40 39 152 34 l82 -3 0 163
0 162 -355 0 -355 0 0 -160 0 -160 119 0 c133 0 151 -7 151 -61 0 -16 -1 -29
-2 -29 -32 -1 -263 -47 -331 -66 -196 -55 -418 -156 -587 -268 -52 -34 -101
-66 -108 -70 -15 -9 -34 5 -62 45 l-20 27 106 62 c146 85 345 188 494 255 69
31 129 61 133 65 12 10 -33 95 -83 158 -79 101 -209 186 -355 232 -90 28 -289
37 -381 16z m300 -206 c76 -19 172 -66 196 -94 9 -12 4 -21 -32 -46 -52 -38
-81 -37 -178 6 -60 26 -75 29 -180 28 -106 0 -121 -3 -195 -33 -44 -18 -115
-53 -159 -77 -43 -24 -80 -44 -82 -44 -2 0 -4 6 -4 14 0 8 33 47 73 88 93 95
182 142 322 172 54 11 168 4 239 -14z m2209 5 c102 -26 195 -81 279 -164 73
-71 93 -101 68 -101 -6 0 -45 20 -88 45 -42 24 -115 59 -162 77 -77 29 -96 32
-200 32 -114 1 -116 1 -194 -38 l-79 -38 -41 23 c-83 45 -82 44 -44 72 46 35
156 86 209 96 71 14 190 12 252 -4z"/>
<path d="M2291 6163 c-65 -23 -136 -98 -155 -164 -18 -59 -19 -607 -7 -2489
l6 -955 34 -63 c42 -77 94 -125 180 -166 l66 -31 1207 -3 c1175 -2 1209 -2
1263 17 125 44 191 139 200 291 3 47 2 823 -2 1725 -8 1632 -8 1640 -29 1685
-30 65 -69 107 -128 138 l-51 27 -1270 2 c-1134 1 -1275 0 -1314 -14z m2519
-228 c20 -10 32 -27 39 -53 17 -60 15 -854 -3 -895 -30 -72 68 -67 -1251 -67
l-1187 0 -29 29 -29 29 0 457 0 457 29 29 29 29 1187 0 c1035 0 1190 -2 1215
-15z m17 -1159 l28 -24 0 -1050 0 -1051 -29 -30 c-20 -21 -45 -34 -80 -41 -35
-7 -406 -10 -1166 -8 -1044 3 -1117 4 -1147 21 -18 9 -41 32 -50 50 -17 30
-18 99 -21 1065 l-3 1033 30 29 29 30 1191 0 1190 0 28 -24z"/>
<path d="M2598 5832 c-15 -2 -38 -17 -53 -33 l-25 -31 0 -329 0 -329 29 -32
29 -33 1026 -3 c1134 -3 1067 -6 1100 62 14 29 16 78 16 343 0 289 -1 310 -20
340 -11 18 -30 35 -42 38 -24 6 -2013 12 -2060 7z m1611 -159 c-63 -54 -85
-146 -54 -234 44 -123 192 -167 302 -89 l43 30 0 -28 c0 -48 -53 -118 -112
-149 -73 -37 -180 -39 -252 -3 -65 33 -130 106 -147 167 -30 108 -6 197 71
267 51 46 93 65 143 66 l39 0 -33 -27z"/>
<path d="M2574 4657 l-29 -25 0 -157 0 -157 28 -24 c27 -23 34 -24 178 -24
l151 0 29 29 29 29 0 146 c0 139 -1 146 -24 173 l-24 28 -155 3 c-152 3 -155
3 -183 -21z"/>
<path d="M3159 4665 c-43 -23 -51 -59 -47 -210 3 -136 3 -137 31 -161 27 -23
33 -24 190 -24 228 0 231 3 225 225 -3 136 -3 137 -31 161 -27 23 -33 24 -185
24 -116 -1 -164 -5 -183 -15z"/>
<path d="M3754 4670 c-46 -18 -54 -49 -54 -204 l0 -144 31 -26 c30 -26 33 -26
186 -26 l155 0 29 30 30 30 -3 151 -3 151 -28 24 c-27 23 -34 24 -175 23 -81
0 -156 -4 -168 -9z"/>
<path d="M4298 4656 c-37 -33 -40 -53 -36 -206 3 -130 3 -132 31 -156 27 -23
33 -24 198 -24 l171 0 29 30 30 30 -3 150 c-4 204 7 194 -221 198 -172 3 -173
3 -199 -22z"/>
<path d="M2613 4162 c-12 -2 -34 -17 -48 -33 -24 -29 -25 -36 -25 -165 0 -151
11 -188 58 -201 15 -5 89 -8 165 -8 l139 0 29 33 29 32 0 141 c0 146 -5 170
-43 191 -20 11 -242 19 -304 10z"/>
<path d="M3173 4159 c-11 -4 -30 -20 -42 -35 -19 -24 -21 -39 -21 -155 0 -207
8 -214 215 -214 77 0 153 3 168 8 53 15 67 57 67 199 0 132 -7 165 -42 187
-23 14 -311 23 -345 10z"/>
<path d="M3749 4153 c-43 -18 -49 -41 -49 -188 0 -152 11 -189 58 -202 15 -5
91 -8 170 -8 l144 0 29 33 29 32 0 140 c0 140 0 140 -29 172 l-28 32 -148 0
c-92 1 -158 -3 -176 -11z"/>
<path d="M4321 4158 c-10 -3 -28 -19 -40 -34 -19 -24 -21 -39 -21 -166 l0
-140 28 -28 c37 -36 85 -44 249 -38 l126 4 28 32 29 32 0 141 c0 146 -5 170
-43 191 -24 13 -323 19 -356 6z"/>
<path d="M2587 3629 c-38 -22 -47 -62 -47 -203 l0 -134 31 -31 31 -31 148 0
c143 0 150 1 177 24 27 24 28 27 33 153 6 147 0 184 -37 213 -23 18 -39 20
-172 20 -80 0 -154 -5 -164 -11z"/>
<path d="M3161 3626 c-43 -24 -50 -52 -51 -189 0 -201 5 -206 218 -207 227 0
232 4 232 216 l0 136 -29 29 -29 29 -159 0 c-112 -1 -165 -5 -182 -14z"/>
<path d="M3730 3611 c-28 -28 -30 -34 -31 -113 -4 -221 -5 -208 29 -240 l32
-28 156 0 156 0 29 29 29 29 0 146 c0 139 -1 146 -24 173 l-24 28 -161 3 -161
3 -30 -30z"/>
<path d="M4309 3625 c-48 -26 -50 -42 -47 -468 l3 -397 28 -27 27 -28 171 0
171 0 29 33 29 32 0 406 0 406 -29 29 -29 29 -164 0 c-121 -1 -170 -4 -189
-15z"/>
<path d="M2583 3100 c-18 -11 -35 -30 -39 -44 -3 -13 -4 -85 -2 -161 l3 -137
33 -29 32 -29 726 0 726 0 34 34 34 34 0 136 c0 150 -9 183 -55 204 -19 9
-208 12 -743 12 -695 0 -718 -1 -749 -20z"/>
<path d="M6703 6126 l-28 -24 -5 -524 c-4 -413 -8 -527 -18 -543 -8 -11 -35
-34 -60 -50 -92 -60 -138 -149 -130 -255 8 -100 72 -190 167 -233 72 -34 188
-31 263 6 72 35 123 94 145 166 10 31 23 66 31 78 8 12 137 114 286 227 275
206 292 223 297 286 4 51 -2 70 -33 106 -55 63 -128 80 -207 48 -21 -8 -137
-89 -257 -179 -236 -177 -256 -187 -293 -139 -21 26 -21 36 -21 511 l0 485
-29 29 c-36 36 -70 37 -108 5z m115 -1312 c31 -36 30 -88 -4 -119 -47 -44
-115 -29 -140 30 -39 93 77 165 144 89z"/>
<path d="M6042 5938 c-22 -22 -13 -60 34 -139 50 -85 72 -99 109 -75 32 21 31
31 -6 102 -61 115 -101 148 -137 112z"/>
<path d="M7420 5921 c-28 -8 -109 -131 -110 -167 0 -29 34 -57 58 -50 26 9
124 155 120 180 -4 26 -38 45 -68 37z"/>
<path d="M5567 5453 c-18 -20 -22 -50 -9 -69 14 -21 169 -104 195 -104 47 0
72 46 45 83 -17 21 -151 96 -186 103 -19 4 -33 0 -45 -13z"/>
<path d="M7817 5397 c-44 -23 -89 -54 -100 -69 -19 -25 -19 -28 -3 -52 24 -38
59 -32 151 23 80 48 92 63 81 106 -10 39 -41 37 -129 -8z"/>
<path d="M5396 4799 c-32 -26 -33 -43 -1 -74 23 -24 31 -25 135 -25 105 0 112
1 136 25 18 19 23 31 19 48 -13 41 -33 47 -151 47 -97 0 -115 -3 -138 -21z"/>
<path d="M7810 4800 c-27 -27 -25 -55 6 -79 23 -18 41 -21 136 -21 102 0 110
1 133 25 30 29 31 35 4 69 -20 25 -23 26 -140 26 -106 0 -121 -2 -139 -20z"/>
<path d="M8725 4721 c-558 -771 -1125 -1137 -1940 -1253 -57 -8 -193 -13 -370
-12 -237 0 -301 3 -420 22 -250 39 -484 109 -684 203 -57 27 -105 49 -107 49
-2 0 -5 -291 -6 -647 -3 -645 -3 -648 -25 -689 -42 -79 -133 -138 -271 -176
-72 -20 -112 -22 -637 -29 -541 -7 -685 -13 -685 -29 0 -11 371 -133 485 -160
425 -101 740 -136 1155 -127 362 8 645 47 967 132 544 145 1062 411 1468 754
571 482 982 1147 1101 1781 17 89 44 273 41 276 -1 1 -33 -41 -72 -95z"/>
<path d="M7698 4269 c-35 -20 -21 -59 40 -121 63 -63 102 -75 122 -39 16 30
14 36 -46 105 -56 67 -78 77 -116 55z"/>
<path d="M5703 4221 c-56 -44 -103 -97 -103 -115 0 -23 38 -49 62 -42 37 10
153 109 156 135 4 27 -23 61 -49 61 -9 0 -39 -17 -66 -39z"/>
<path d="M7261 3894 c-17 -12 -21 -22 -17 -40 10 -38 75 -143 97 -154 28 -16
58 -3 66 28 10 42 -73 182 -109 182 -8 0 -24 -7 -37 -16z"/>
<path d="M6156 3835 c-33 -35 -86 -138 -86 -167 0 -50 52 -65 86 -25 26 29
104 160 104 174 0 20 -31 43 -56 43 -14 0 -35 -11 -48 -25z"/>
<path d="M6716 3768 c-11 -16 -16 -46 -16 -103 0 -68 3 -85 20 -103 26 -28 55
-28 74 0 21 30 22 158 1 198 -19 37 -57 40 -79 8z"/>
</g>
</svg>
